<?xml version="1.0" standalone="no"?>
<!DOCTYPE svg PUBLIC "-//W3C//DTD SVG 20010904//EN"
 "http://www.w3.org/TR/2001/REC-SVG-20010904/DTD/svg10.dtd">
<svg version="1.0" xmlns="http://www.w3.org/2000/svg"
 width="600.000000pt" height="600.000000pt" viewBox="0 0 600.000000 600.000000"
 preserveAspectRatio="xMidYMid meet">
<metadata>
Created by potrace 1.14, written by Peter Selinger 2001-2017
</metadata>
<g transform="translate(0.000000,600.000000) scale(0.100000,-0.100000)"
fill="#000000" stroke="none">
<path d="M2072 5989 c-24 -4 -63 -18 -86 -30 -31 -15 -331 -309 -994 -973
-846 -847 -952 -956 -968 -1001 -18 -48 -19 -117 -19 -1890 l0 -1840 33 -67
c37 -76 82 -120 162 -157 l55 -26 2725 -3 c2371 -2 2731 0 2775 13 102 29 197
123 226 222 12 40 14 483 14 2773 l0 2725 -33 67 c-38 77 -92 130 -171 167
l-56 26 -1810 1 c-995 1 -1829 -2 -1853 -7z m3418 -2994 l0 -2495 -2492 2
-2493 3 -3 1627 -2 1627 737 3 738 3 56 26 c73 35 128 85 165 151 l29 53 3
748 2 747 1630 0 1630 0 0 -2495z"/>
<path d="M3077 4800 c-32 -26 -29 -12 -82 -290 -52 -272 -54 -298 -22 -328 22
-21 32 -22 226 -22 l203 0 -5 -22 c-3 -13 -85 -428 -182 -923 -97 -495 -183
-927 -192 -960 -21 -87 -79 -190 -130 -235 -113 -99 -303 -99 -386 0 -56 66
-68 165 -41 330 29 183 29 186 1 214 l-26 26 -374 0 c-446 0 -414 9 -446 -128
-52 -228 -55 -465 -7 -627 97 -323 345 -542 725 -642 132 -35 390 -44 543 -18
458 75 821 381 987 833 47 126 51 148 242 1127 98 506 184 944 190 973 l10 52
158 0 c152 0 158 1 180 24 17 19 31 71 71 277 28 140 50 264 50 277 0 13 -13
37 -29 53 l-29 29 -805 0 c-793 0 -805 0 -830 -20z"/>
</g>
</svg>
